<?xml version="1.0" encoding="UTF-8"?>
<svg id="Layer_1" xmlns="http://www.w3.org/2000/svg" version="1.1" viewBox="0 0 864 864">
  <!-- Generator: Adobe Illustrator 29.8.1, SVG Export Plug-In . SVG Version: 2.1.1 Build 2)  -->
  <defs>
    <style>
      .st0 {
        display: none;
        fill: #801619;
      }

      .st1 {
        fill: #fff;
      }

      .st2 {
        fill: #e4ad38;
      }
    </style>
  </defs>
  <rect class="st0" width="864" height="864"/>
  <polygon class="st1" points="590.55 424.37 551.5 375.84 516.58 412.82 456.9 429.32 455.12 414.47 415.65 441.96 395.17 440.46 382.99 451.84 373.13 451.47 363.72 461.29 344.22 458.52 336.95 423.64 326.54 434.63 317.09 438.1 279.95 474.15 293.36 514.57 381.86 549.14 529.92 552.05 601.76 483.96 590.55 424.37"/>
  <g>
    <g>
      <path class="st2" d="M523.88,436.62c-4.19.26-8.12,2.27-10.78,5.51l-20.02,24.31,2.19,2.2,19.38-15.77c3.08-2.51,6.52-4.49,10.23-5.89l.27.02-14.44,34.16,16-17.96c8.97-10.06,15.76-22.21,19.63-35.12l6.4-21.35-26.35,29.73-2.51.16Z"/>
      <path class="st2" d="M646.36,430.66c0-.46-.01-.92-.02-1.38l56.85-25.97-13.92-62.62-62.4.57c-4.42-9.63-9.54-18.87-15.29-27.67l33.77-52.56-45.57-45.15-52.2,34.22c-8.85-5.67-18.14-10.71-27.81-15.06v-62.44s-62.75-13.35-62.75-13.35l-25.42,57.04c-10.71.02-21.22.83-31.51,2.36l-33.77-52.55-60,22.69,9.45,61.71c-8.87,5.74-17.29,12.11-25.2,19.06l-56.85-25.96-38.21,51.53,41.29,46.78c-4.35,9.54-8.01,19.46-10.94,29.69l-61.8,8.89-4.28,64.01,60.06,17.04c1.52,10.56,3.82,20.87,6.82,30.87l-47.19,40.89,31,56.16,59.76-18.14c6.92,7.95,14.42,15.38,22.43,22.24l-17.6,59.97,56.44,30.48,40.43-47.53c10.02,2.92,20.35,5.13,30.93,6.56l17.6,59.95,63.96-4.87,8.32-61.84c10.2-3.01,20.08-6.76,29.58-11.18l47.2,40.89,51.18-38.68-26.46-56.56c6.88-7.96,13.18-16.44,18.84-25.36l61.83,8.89,22.14-60.21-52.83-33.27c1.39-9.85,2.12-19.91,2.12-30.14ZM432,276.07c80.78,0,147.08,61.96,153.98,140.95l-33.37-48.7-34.55,38.51-57.77,17.56-3.4-14.72-40.21,29.45h-22.09l-13.03,11.33h-9.63l-9.06,7.93-16.99-.57-1.13-25.49-7.36-12.46-10.76,12.46h-5.1l-39.39,36.47c-3.09-12.2-4.74-24.97-4.74-38.13,0-85.38,69.21-154.59,154.59-154.59ZM336.27,427.22l.21,3.3c.23,3.73-.82,7.42-2.99,10.46l-40.67,57.03c-3.76-7.76-6.89-15.88-9.33-24.3l33.52-34.04c-1.06,2.31-2.21,4.68-3.47,7.08-3.76,7.19-7.82,13.5-11.82,18.97,11.52-12.84,23.03-25.67,34.55-38.51ZM297.75,507.35l17-25.76,26.05-11.33-16,19.61-26.48,18.46c-.19-.33-.38-.65-.57-.98ZM417.82,443.08l-.71,5.42c-.64,4.89-3.13,9.34-6.96,12.44l-46.96,38.04c-2.29,1.85-5.4,2.29-8.12,1.15l-3.78-1.59c-1.16-.49-1.37-2.04-.38-2.82l66.89-52.64ZM365.59,464.34l9.19-11.63,8.93,3.14c-2.1.5-4.45,1.2-6.94,2.19-4.7,1.88-8.42,4.23-11.19,6.3ZM388.77,452.74c2.57-3.59,5.15-7.18,7.72-10.78l9.58,1.5c-2.38.79-5.06,1.86-7.91,3.3-3.81,1.93-6.93,4.05-9.39,5.97ZM366.04,506.54l74.82-59.64c-3.6,4.97-8.21,10.68-13.91,16.39-3.04,3.04-5.94,5.63-8.59,7.83,5.82-2.26,15.23-7.95,20.85-12.34-3.12,3.46-8.09,10.04-14.34,13.67-2.04,1.18-5.24,2.67-6.96,3.38l-.79,6.96c-.25,2.18-1.54,4.44-3.43,6.06-3.06,2.62-6.65,4.25-10.1,4.59l-8.01.78-6.31,5.4c-3.8,3.25-8.78,4.53-12.76,3.24,0,0-9.17,5.21-13.23,9.99-3.71,4.37-6,8.3-7.38,11.15l.61-7.43-15.55-3.72,25.1-6.3ZM421.22,451.57l2.49-7.47c.96-2.88,2.74-5.43,5.11-7.33l24.68-19.74-32.28,34.55ZM575.46,442.27l-.73,9.85c-.08,1.09-.63,2.1-1.51,2.75-.88.66-2,.9-3.07.66l-18.47-4.04,14.66,12c1.3,1.06,1.9,2.75,1.57,4.4l-1.28,6.39c-.37,1.86-1.88,3.3-3.76,3.59l-24.85,3.79c-3.2.49-6.07,2.14-8.08,4.67-1.94,2.43-5.29,3.25-8.13,2l-9.19-4.05-42.15,41.11,3.75-11.71c2.28-7.13.41-14.84-4.88-20.13l-2.99-2.99,3.88-4.75c7.08-8.65,11.37-19.1,12.43-30.22l.63-6.6c11.24-9.01,22.15-18.67,32.45-28.71,12.55-12.24,24.5-25.36,35.53-39.02l7.12,12.06c7.35,12.45,16.79,23.25,28.09,32.15.06,1.73.1,3.46.1,5.2,0,1.01-.02,2.02-.04,3.02l-11.09,8.58Z"/>
    </g>
    <path class="st2" d="M171.64,643.11c-23.99-29.36-42.68-62.24-55.57-97.71-13.34-36.71-20.1-75.31-20.1-114.73,0-81.04,29.25-159.31,82.36-220.38l5.88,5.12c-51.88,59.66-80.45,136.11-80.45,215.27,0,38.51,6.6,76.21,19.63,112.07,12.59,34.65,30.85,66.76,54.28,95.44l-6.04,4.93Z"/>
    <path class="st2" d="M696.13,638.41l-6.12-4.82c22.3-28.32,39.67-59.83,51.61-93.67,12.35-35.01,18.62-71.77,18.62-109.25,0-79.3-28.66-155.85-80.69-215.55l5.88-5.12c53.27,61.12,82.61,139.5,82.61,220.68,0,38.36-6.41,75.99-19.06,111.84-12.23,34.65-30,66.92-52.83,95.91Z"/>
    <g>
      <path class="st1" d="M242,148.13l15.96,23.05-7.01,4.86-15.96-23.05-8.2,5.68-4.15-5.99,23.43-16.21,4.14,5.99-8.2,5.68Z"/>
      <path class="st1" d="M305.11,145.06l-6.3-13.36-12.46,5.87,6.3,13.36-7.72,3.64-15.05-31.95,7.72-3.64,5.7,12.1,12.46-5.87-5.7-12.09,7.72-3.64,15.06,31.95-7.72,3.64Z"/>
      <path class="st1" d="M336.4,133l-9.52-34.01,22.87-6.4,1.94,6.92-14.94,4.18,1.8,6.44,14.13-3.95,1.84,6.58-14.12,3.95,1.98,7.06,15.81-4.43,1.96,7.01-23.73,6.64Z"/>
      <path class="st1" d="M394.92,92.26l3.38,27.83-8.47,1.03-3.38-27.83-9.91,1.2-.88-7.23,28.28-3.44.88,7.23-9.9,1.2Z"/>
      <path class="st1" d="M450.94,118.7l-2.54-7.01-13.66-.4-2.8,6.86-9.27-.27,15.85-34.87,8.28.24,13.63,35.74-9.47-.28ZM442.23,92.54l-4.84,11.99,8.88.26-4.03-12.25Z"/>
      <path class="st1" d="M531.5,105.02l-7.86,26.91-8.19-2.39,7.86-26.91-9.58-2.8,2.04-6.99,27.35,7.99-2.04,6.99-9.58-2.8Z"/>
      <path class="st1" d="M572.52,151.48l.45-7.44-12.38-5.79-5.28,5.18-8.41-3.93,28.38-25.73,7.5,3.51-1.66,38.21-8.59-4.01ZM574.89,124.01l-9.2,9.08,8.05,3.76,1.15-12.84Z"/>
      <path class="st1" d="M626.09,176.02c-1.58,1.02-3.28,1.67-5.08,1.93-1.81.26-3.68.15-5.62-.35-1.94-.5-3.85-1.41-5.74-2.72-1.91-1.33-3.43-2.81-4.56-4.45-1.13-1.64-1.87-3.34-2.23-5.1-.35-1.77-.32-3.56.11-5.4.42-1.83,1.24-3.62,2.46-5.37l12.57-18.06,6.96,4.84-12.17,17.49c-.55.79-.97,1.61-1.26,2.46-.29.85-.42,1.71-.38,2.56.03.85.28,1.69.75,2.5.47.81,1.19,1.56,2.18,2.24.98.69,1.93,1.1,2.86,1.26.92.16,1.8.11,2.62-.15.83-.26,1.58-.67,2.27-1.25.69-.58,1.3-1.26,1.85-2.05l12.17-17.49,7,4.87-12.56,18.06c-1.22,1.75-2.62,3.13-4.2,4.16Z"/>
    </g>
    <circle class="st2" cx="658.81" cy="188.39" r="6.37"/>
    <circle class="st2" cx="210.09" cy="186.83" r="6.37"/>
    <circle class="st2" cx="198.39" cy="663.16" r="5.3"/>
    <circle class="st2" cx="668.39" cy="663.16" r="5.3"/>
    <g>
      <path class="st1" d="M212.57,703.66l21.24-28.22,18.97,14.28-4.32,5.74-12.4-9.33-4.02,5.34,11.72,8.82-4.11,5.46-11.72-8.82-4.41,5.86,13.12,9.87-4.38,5.82-19.69-14.82Z"/>
      <path class="st1" d="M282.53,716.01l-13.36,24.65-7.5-4.07,13.36-24.65-8.77-4.75,3.47-6.4,25.04,13.58-3.47,6.4-8.77-4.76Z"/>
      <path class="st1" d="M321.67,763.11l-.22-7.45-12.85-4.65-4.8,5.64-8.73-3.16,25.95-28.18,7.79,2.82,1.78,38.21-8.91-3.22ZM321.56,735.54l-8.35,9.87,8.35,3.02v-12.89Z"/>
      <path class="st1" d="M413.12,780.42c-2.35.37-4.88.45-7.6.23-2.82-.23-5.38-.89-7.67-1.97-2.3-1.09-4.24-2.51-5.81-4.28-1.58-1.76-2.75-3.82-3.53-6.17-.78-2.35-1.05-4.91-.83-7.7.23-2.82.93-5.33,2.09-7.54s2.67-4.05,4.53-5.51c1.85-1.47,3.98-2.54,6.37-3.21,2.39-.67,4.93-.9,7.61-.68,2.78.23,5.34.86,7.66,1.9,2.32,1.04,4.17,2.33,5.54,3.88l-5.87,5.68c-.75-1.03-1.78-1.9-3.09-2.63-1.31-.72-2.83-1.16-4.55-1.3-1.49-.12-2.89.04-4.19.48-1.3.45-2.46,1.12-3.47,2.02-1.01.9-1.82,2-2.45,3.31-.62,1.3-1,2.75-1.13,4.34-.13,1.62-.02,3.13.33,4.53.35,1.4.95,2.62,1.78,3.67.83,1.05,1.9,1.91,3.2,2.56,1.3.66,2.81,1.05,4.53,1.19.99.08,1.94.08,2.85,0,.91-.08,1.76-.25,2.55-.52l.52-6.41-6.71-.55.56-6.86,14.52,1.18-1.51,18.65c-1.8.76-3.87,1.32-6.22,1.7Z"/>
      <path class="st1" d="M472.82,778.46l-3.36-6.66-13.61,1.23-1.96,7.14-9.24.83,11.59-36.51,8.25-.74,17.78,33.86-9.44.85ZM461.05,753.52l-3.38,12.48,8.84-.8-5.46-11.68Z"/>
      <path class="st1" d="M538.83,764.28l-6.6-24.11-.14.04-2.04,26.55-5.76,1.63-15.39-21.63-.14.04,6.98,24-7.73,2.18-9.6-33.99,11.68-3.3,13.89,19.61.19-.05,1.25-23.89,11.88-3.35,9.6,33.99-8.06,2.28Z"/>
      <path class="st1" d="M603.95,735.92l-11.34-22.27-.13.07,3.37,26.41-5.31,2.76-19.44-18.07-.13.07,11.69,22.09-7.13,3.7-16.27-31.35,10.77-5.59,17.57,16.4.18-.09-3.61-23.65,10.95-5.69,16.28,31.35-7.44,3.86Z"/>
      <path class="st1" d="M655.53,700.3l-6.44-3.76-10.74,8.45,2.25,7.05-7.29,5.74-10.19-36.92,6.51-5.12,33.36,18.7-7.45,5.86ZM632.07,685.81l3.96,12.31,6.98-5.49-10.95-6.81Z"/>
    </g>
  </g>
</svg>