<svg viewBox="0 68.112 613.5854922279793 288.288" version="1.1" xmlns="http://www.w3.org/2000/svg" id="Layer_1" style="max-height: 500px" width="613.5854922279793" height="288.288">
  
  <defs>
    <style>
      .st0 {
        fill: #fff;
      }

      .st1 {
        fill: #e4ad38;
      }

      .st2 {
        fill: #801619;
      }
    </style>
  </defs>
  <circle r="224.37" cy="295.81" cx="339.39" class="st1"/>
  <g>
    <polygon points="9.34 225.48 94.52 156.5 110.52 156.5 129.32 138.28 134.52 167.67 135.92 215.49 175.51 210.78 191.91 196.06 212.5 200.59 235.1 179.82 280.49 184.92 351.08 140.24 353.72 164.57 472.63 146.88 540.49 91.36 610.3 195.04 546.98 290.86 431.52 309.82 358.44 361.88 62.73 358.26 16.67 355.56 9.34 225.48" class="st0"/>
    <g>
      <path d="M479.9,195.88c-8-.27-15.83,2.83-21.47,8.49l-42.45,42.51,3.75,4.58,39.67-26.41c6.3-4.2,13.19-7.33,20.49-9.32l.51.09-33.65,62.23,33.66-31.18c18.87-17.47,33.97-39.29,43.69-63.1l16.05-39.36-55.46,51.64-4.79-.16h0Z" class="st2"/>
      <path d="M546.91,71.44l-72.62,66.82-112.88,22.8-3.77-28.58-81.72,48.58-41.94-4.03-26.8,19.13-18.28-1.76-18.65,13.4-32.16-4.17,2.5-48.6-11.71-25-22.7,21.69-9.68-.93L0,224.35v568.21h612V189.2l-65.09-117.76h0ZM237.06,182.79l17.91,4.6c-4.67,1.07-9.95,2.6-15.62,4.82-7.58,2.97-13.89,6.43-18.92,9.63,5.54-6.35,11.09-12.7,16.63-19.05h0ZM193.87,199.23l16.38,7.59c-4.09.56-8.66,1.46-13.57,2.9-9.27,2.72-16.76,6.49-22.39,9.92l19.58-20.41h0ZM140.74,276.54l136.61-87.74-2.33,10.15c-2.1,9.16-7.64,17.16-15.48,22.35l-96.1,63.65c-4.68,3.1-10.68,3.37-15.62.71l-6.88-3.71c-2.11-1.14-2.23-4.12-.21-5.42h.01ZM9.86,228.21l76.71-64.25c-2.43,4.2-5.05,8.47-7.88,12.81-8.46,12.97-17.3,24.21-25.91,33.87,24.21-22.27,48.41-44.55,72.62-66.82l-.21,6.3c-.24,7.12-2.92,13.94-7.59,19.32l-92.83,106.88-14.91-48.1h0ZM92.2,260.67l-58.23,32.8,40.65-50.36,51.53-16.75-33.95,34.31ZM315.09,222.5c-6.55,6-17.19,17.59-29.71,23.33-4.09,1.88-10.43,4.11-13.84,5.14l-2.78,13.07c-.87,4.09-3.73,8.15-7.63,10.89-6.29,4.41-13.41,6.86-20.01,6.87l-15.35.03-12.97,9.1c-7.8,5.47-17.49,6.99-24.82,3.83,0,0-18.36,8.23-26.95,16.55-7.85,7.61-12.9,14.67-16.05,19.83l2.51-14-28.84-9.9,48.81-7.38,152.93-99.59c-7.74,8.77-17.54,18.78-29.41,28.58-6.32,5.22-12.3,9.61-17.74,13.29,11.46-3.23,30.37-12.32,41.84-19.63h0ZM282.26,205.55l6.09-13.74c2.35-5.3,6.18-9.81,11.04-12.98l50.46-32.99-67.59,59.7h0ZM576.81,216.02l-3.18,18.56c-.36,2.06-1.58,3.87-3.37,4.95-1.79,1.09-3.95,1.34-5.94.7l-34.33-11.04,25.65,25.45c2.27,2.26,3.11,5.57,2.19,8.63l-3.59,11.9c-1.04,3.46-4.18,5.93-7.79,6.13l-47.87,2.67c-6.16.34-11.91,2.96-16.2,7.39-4.13,4.26-10.63,5.2-15.8,2.31l-16.72-9.36-87.52,70.36,9.25-21.54c5.63-13.12,3.48-28.11-5.6-39.12l-5.13-6.22,8.24-8.3c15.01-15.13,25.08-34.19,29.12-55.11l2.4-12.41c22.98-15.06,45.47-31.41,66.84-48.6,26.07-20.96,51.14-43.69,74.57-67.6l11.31,24.19c12.96,27.72,31.17,52.05,54.12,72.31l2.92,2.58-33.58,21.19v-.02Z" class="st2"/>
    </g>
  </g>
</svg>